# Blender 4.3.2
# www.blender.org
mtllib Pavallion.mtl
o Plane.002
v -3.851088 82.268951 2.296875
v -3.851088 73.909576 2.296875
v 4.508288 82.268951 2.296875
v 4.508288 73.909576 2.296875
v 0.328600 83.089264 4.666667
v 0.328600 73.089264 4.666667
v -4.671401 78.089264 4.666667
v 5.328600 78.089264 4.666667
v 0.328600 78.089264 4.268533
v -3.851088 82.268951 2.296875
v -3.851088 73.909576 2.296875
v 4.508288 82.268951 2.296875
v 4.508288 73.909576 2.296875
v 0.328600 83.089264 4.666667
v 0.328600 73.089264 4.666667
v -4.671401 78.089264 4.666667
v 5.328600 78.089264 4.666667
v 0.328600 78.089264 4.096177
v -2.067234 82.985100 3.500000
v -4.567234 75.693428 3.500000
v 2.724433 73.193428 3.500000
v 5.224434 80.485100 3.500000
v 2.724433 82.985100 3.500000
v -2.067234 73.193428 3.500000
v 0.328600 80.589264 4.392950
v -4.567234 80.485100 3.500000
v 5.224434 75.693428 3.500000
v 0.328600 75.589264 4.392950
v -2.171400 78.089264 4.392950
v 2.828600 78.089264 4.392950
v -2.067234 82.985100 3.500000
v -4.567234 75.693428 3.500000
v 2.724433 73.193428 3.500000
v 5.224434 80.485100 3.500000
v 2.724433 82.985100 3.500000
v -2.067234 73.193428 3.500000
v 0.328600 80.589264 4.274456
v -4.567234 80.485100 3.500000
v 5.224434 75.693428 3.500000
v 0.328600 75.589264 4.274455
v -2.171400 78.089264 4.274456
v 2.828600 78.089264 4.274455
v 2.811239 75.606628 4.071368
v -2.154039 75.606628 4.071368
v -2.154039 80.571899 4.071368
v 2.811239 80.571899 4.071368
v 2.811239 75.606628 3.989903
v -2.154039 75.606628 3.989903
v -2.154039 80.571899 3.989903
v 2.811239 80.571899 3.989903
vn 0.0396 -0.0396 0.9984
vn 0.2926 -0.0630 0.9541
vn 0.4204 -0.4204 0.8041
vn 0.0630 -0.2926 0.9541
vn -0.0630 -0.2926 0.9541
vn -0.4204 -0.4204 0.8041
vn -0.2926 -0.0630 0.9541
vn -0.0396 -0.0396 0.9984
vn -0.4204 0.4204 0.8041
vn -0.0630 0.2926 0.9541
vn -0.0396 0.0396 0.9984
vn -0.2926 0.0630 0.9541
vn 0.2926 0.0630 0.9541
vn 0.0396 0.0396 0.9984
vn 0.0630 0.2926 0.9541
vn 0.4204 0.4204 0.8041
vn 0.0214 -0.0214 0.9995
vn 0.2856 -0.0241 0.9580
vn 0.4076 -0.4076 0.8171
vn 0.0241 -0.2856 0.9580
vn -0.0241 -0.2856 0.9580
vn -0.4076 -0.4076 0.8171
vn -0.2856 -0.0241 0.9580
vn -0.0214 -0.0214 0.9995
vn -0.4076 0.4076 0.8171
vn -0.0241 0.2856 0.9580
vn -0.0214 0.0214 0.9995
vn -0.2856 0.0241 0.9580
vn 0.2856 0.0241 0.9580
vn 0.0214 0.0214 0.9995
vn 0.0241 0.2856 0.9580
vn 0.4076 0.4076 0.8171
vt 0.500000 0.500000
vt 0.750000 0.500000
vt 0.750000 0.750000
vt 0.500000 0.750000
vt 1.000000 0.500000
vt 1.000000 0.750000
vt 1.000000 1.000000
vt 0.750000 1.000000
vt 0.500000 1.000000
vt 0.500000 0.000000
vt 0.750000 0.000000
vt 0.750000 0.250000
vt 0.500000 0.250000
vt 1.000000 0.000000
vt 1.000000 0.250000
vt 0.000000 0.000000
vt 0.250000 0.000000
vt 0.250000 0.250000
vt 0.000000 0.250000
vt 0.250000 0.500000
vt 0.000000 0.500000
vt 0.250000 0.750000
vt 0.000000 0.750000
vt 0.250000 1.000000
vt 0.000000 1.000000
s 0
usemtl Material.001
f 9/1/1 28/2/1 43/3/1 30/4/1
f 28/2/2 6/5/2 21/6/2 43/3/2
f 43/3/3 21/6/3 4/7/3 27/8/3
f 30/4/4 43/3/4 27/8/4 8/9/4
f 7/10/5 20/11/5 44/12/5 29/13/5
f 20/11/6 2/14/6 24/15/6 44/12/6
f 44/12/7 24/15/7 6/5/7 28/2/7
f 29/13/8 44/12/8 28/2/8 9/1/8
f 1/16/9 26/17/9 45/18/9 19/19/9
f 26/17/10 7/10/10 29/13/10 45/18/10
f 45/18/11 29/13/11 9/1/11 25/20/11
f 19/19/12 45/18/12 25/20/12 5/21/12
f 5/21/13 25/20/13 46/22/13 23/23/13
f 25/20/14 9/1/14 30/4/14 46/22/14
f 46/22/15 30/4/15 8/9/15 22/24/15
f 23/23/16 46/22/16 22/24/16 3/25/16
f 18/1/17 40/2/17 47/3/17 42/4/17
f 40/2/18 15/5/18 33/6/18 47/3/18
f 47/3/19 33/6/19 13/7/19 39/8/19
f 42/4/20 47/3/20 39/8/20 17/9/20
f 16/10/21 32/11/21 48/12/21 41/13/21
f 32/11/22 11/14/22 36/15/22 48/12/22
f 48/12/23 36/15/23 15/5/23 40/2/23
f 41/13/24 48/12/24 40/2/24 18/1/24
f 10/16/25 38/17/25 49/18/25 31/19/25
f 38/17/26 16/10/26 41/13/26 49/18/26
f 49/18/27 41/13/27 18/1/27 37/20/27
f 31/19/28 49/18/28 37/20/28 14/21/28
f 14/21/29 37/20/29 50/22/29 35/23/29
f 37/20/30 18/1/30 42/4/30 50/22/30
f 50/22/31 42/4/31 17/9/31 34/24/31
f 35/23/32 50/22/32 34/24/32 12/25/32
o Plane.003
v -4.179688 97.247429 2.296875
v -4.179688 88.888054 2.296875
v 4.179688 97.247429 2.296875
v 4.179688 88.888054 2.296875
v 0.000000 98.067741 4.666667
v 0.000000 88.067741 4.666667
v -5.000000 93.067741 4.666667
v 5.000000 93.067741 4.666667
v 0.000000 93.067741 4.268533
v -4.179688 97.247429 2.296875
v -4.179688 88.888054 2.296875
v 4.179688 97.247429 2.296875
v 4.179688 88.888054 2.296875
v 0.000000 98.067741 4.666667
v 0.000000 88.067741 4.666667
v -5.000000 93.067741 4.666667
v 5.000000 93.067741 4.666667
v 0.000000 93.067741 4.096177
v -1.236979 98.054718 4.302084
v -2.395833 97.963577 3.500000
v -3.398438 97.716179 2.697917
v -4.986979 91.830765 4.302084
v -4.895834 90.671906 3.500000
v -4.648438 89.669304 2.697917
v 1.236979 88.080765 4.302084
v 2.395833 88.171906 3.500000
v 3.398438 88.419304 2.697917
v 4.986980 94.304718 4.302084
v 4.895834 95.463577 3.500000
v 4.648438 96.466179 2.697917
v 3.398438 97.716179 2.697917
v 2.395833 97.963577 3.500000
v 1.236979 98.054718 4.302084
v -3.398438 88.419304 2.697917
v -2.395833 88.171906 3.500000
v -1.236979 88.080765 4.302084
v 0.000000 94.317741 4.302747
v 0.000000 95.567741 4.392950
v 0.000000 96.817741 4.520477
v -4.648438 96.466179 2.697917
v -4.895834 95.463577 3.500000
v -4.986980 94.304718 4.302084
v 4.648438 89.669304 2.697917
v 4.895834 90.671906 3.500000
v 4.986979 91.830765 4.302084
v 0.000000 89.317741 4.520477
v 0.000000 90.567741 4.392950
v 0.000000 91.817741 4.302748
v -3.750000 93.067741 4.520477
v -2.500000 93.067741 4.392950
v -1.250000 93.067741 4.302748
v 1.250000 93.067741 4.302747
v 2.500000 93.067741 4.392950
v 3.750000 93.067741 4.520477
v -3.398438 97.716179 2.697917
v -2.395833 97.963577 3.500000
v -1.236979 98.054718 4.302084
v -4.648438 89.669304 2.697917
v -4.895834 90.671906 3.500000
v -4.986979 91.830765 4.302084
v 3.398438 88.419304 2.697917
v 2.395833 88.171906 3.500000
v 1.236979 88.080765 4.302084
v 4.648438 96.466179 2.697917
v 4.895834 95.463577 3.500000
v 4.986980 94.304718 4.302084
v 1.236979 98.054718 4.302084
v 2.395833 97.963577 3.500000
v 3.398438 97.716179 2.697917
v -1.236979 88.080765 4.302084
v -2.395833 88.171906 3.500000
v -3.398438 88.419304 2.697917
v 0.000000 94.317741 4.145204
v 0.000000 95.567741 4.274456
v 0.000000 96.817741 4.457190
v -4.986980 94.304718 4.302084
v -4.895834 95.463577 3.500000
v -4.648438 96.466179 2.697917
v 4.986979 91.830765 4.302084
v 4.895834 90.671906 3.500000
v 4.648438 89.669304 2.697917
v 0.000000 89.317741 4.457190
v 0.000000 90.567741 4.274455
v 0.000000 91.817741 4.145204
v -3.750000 93.067741 4.457190
v -2.500000 93.067741 4.274456
v -1.250000 93.067741 4.145204
v 1.250000 93.067741 4.145203
v 2.500000 93.067741 4.274455
v 3.750000 93.067741 4.457191
v 1.249729 91.818016 4.300317
v 1.247830 90.569908 4.297223
v 1.243218 89.324524 4.298245
v 2.497830 91.819908 4.297224
v 2.482639 90.585106 4.071368
v 2.445747 89.371994 3.795219
v 3.743218 91.824524 4.298245
v 3.695747 90.621994 3.795219
v 3.576118 89.491623 3.231084
v -3.743218 91.824524 4.298245
v -3.695747 90.621994 3.795219
v -3.576118 89.491623 3.231084
v -2.497830 91.819908 4.297223
v -2.482639 90.585106 4.071368
v -2.445747 89.371994 3.795219
v -1.249729 91.818016 4.300317
v -1.247830 90.569908 4.297223
v -1.243219 89.324524 4.298245
v -3.576118 96.643860 3.231084
v -3.695747 95.513489 3.795220
v -3.743218 94.310959 4.298245
v -2.445747 96.763489 3.795220
v -2.482639 95.550377 4.071368
v -2.497830 94.315575 4.297223
v -1.243218 96.810959 4.298245
v -1.247830 95.565575 4.297223
v -1.249729 94.317467 4.300317
v 1.243218 96.810959 4.298245
v 1.247830 95.565575 4.297223
v 1.249729 94.317467 4.300317
v 2.445747 96.763489 3.795220
v 2.482639 95.550377 4.071368
v 2.497830 94.315575 4.297224
v 3.576118 96.643860 3.231084
v 3.695747 95.513489 3.795219
v 3.743219 94.310959 4.298245
v 1.249729 91.818016 4.156312
v 1.247830 90.569908 4.188911
v 1.243218 89.324524 4.240397
v 2.497830 91.819908 4.188912
v 2.482639 90.585106 3.989903
v 2.445747 89.371994 3.751710
v 3.743218 91.824524 4.240396
v 3.695747 90.621994 3.751710
v 3.576118 89.491623 3.207846
v -3.743218 91.824524 4.240396
v -3.695747 90.621994 3.751710
v -3.576118 89.491623 3.207846
v -2.497830 91.819908 4.188912
v -2.482639 90.585106 3.989903
v -2.445747 89.371994 3.751709
v -1.249729 91.818016 4.156312
v -1.247830 90.569908 4.188912
v -1.243219 89.324524 4.240396
v -3.576118 96.643860 3.207846
v -3.695747 95.513489 3.751710
v -3.743218 94.310959 4.240396
v -2.445747 96.763489 3.751709
v -2.482639 95.550377 3.989903
v -2.497830 94.315575 4.188911
v -1.243218 96.810959 4.240397
v -1.247830 95.565575 4.188911
v -1.249729 94.317467 4.156312
v 1.243218 96.810959 4.240396
v 1.247830 95.565575 4.188911
v 1.249729 94.317467 4.156312
v 2.445747 96.763489 3.751710
v 2.482639 95.550377 3.989903
v 2.497830 94.315575 4.188912
v 3.576118 96.643860 3.207846
v 3.695747 95.513489 3.751710
v 3.743219 94.310959 4.240396
vn 0.0921 -0.0921 0.9915
vn 0.2874 -0.1113 0.9513
vn 0.1113 -0.2874 0.9513
vn 0.3376 -0.3376 0.8787
vn -0.0127 0.0127 0.9998
vn 0.0392 0.0348 0.9986
vn 0.1263 0.0508 0.9907
vn 0.2294 0.0579 0.9716
vn 0.4857 -0.1145 0.8666
vn 0.5484 -0.3343 0.7664
vn 0.5220 -0.5220 0.6745
vn 0.3343 -0.5484 0.7664
vn 0.1145 -0.4857 0.8666
vn -0.0579 -0.2294 0.9716
vn -0.0508 -0.1263 0.9907
vn -0.0348 -0.0392 0.9986
vn -0.1113 -0.2874 0.9513
vn -0.3376 -0.3376 0.8787
vn -0.0921 -0.0921 0.9915
vn -0.2874 -0.1113 0.9513
vn 0.0579 -0.2294 0.9716
vn -0.1145 -0.4857 0.8666
vn -0.3343 -0.5484 0.7664
vn -0.5220 -0.5220 0.6745
vn -0.5484 -0.3343 0.7664
vn -0.4857 -0.1145 0.8666
vn -0.2294 0.0579 0.9716
vn -0.1263 0.0508 0.9907
vn -0.0392 0.0348 0.9986
vn 0.0127 0.0127 0.9998
vn 0.0348 -0.0392 0.9986
vn 0.0508 -0.1263 0.9907
vn -0.3376 0.3376 0.8787
vn -0.1113 0.2874 0.9513
vn -0.2874 0.1113 0.9513
vn -0.0921 0.0921 0.9915
vn -0.5220 0.5220 0.6745
vn -0.3343 0.5484 0.7664
vn -0.1145 0.4857 0.8666
vn 0.0579 0.2294 0.9716
vn 0.0508 0.1263 0.9907
vn 0.0348 0.0392 0.9986
vn 0.0127 -0.0127 0.9998
vn -0.0392 -0.0348 0.9986
vn -0.1263 -0.0508 0.9907
vn -0.2294 -0.0579 0.9716
vn -0.4857 0.1145 0.8666
vn -0.5484 0.3343 0.7664
vn 0.2874 0.1113 0.9513
vn 0.0921 0.0921 0.9915
vn 0.3376 0.3376 0.8787
vn 0.1113 0.2874 0.9513
vn 0.2294 -0.0579 0.9716
vn 0.1263 -0.0508 0.9907
vn 0.0392 -0.0348 0.9986
vn -0.0127 -0.0127 0.9998
vn -0.0348 0.0392 0.9986
vn -0.0508 0.1263 0.9907
vn -0.0579 0.2294 0.9716
vn 0.1145 0.4857 0.8666
vn 0.3343 0.5484 0.7664
vn 0.5220 0.5220 0.6745
vn 0.5484 0.3343 0.7664
vn 0.4857 0.1145 0.8666
vn 0.0672 -0.0672 0.9955
vn 0.2726 -0.0774 0.9590
vn 0.0774 -0.2726 0.9590
vn 0.3191 -0.3191 0.8924
vn -0.0240 0.0240 0.9994
vn 0.0297 0.0646 0.9975
vn 0.1196 0.0926 0.9885
vn 0.2262 0.1047 0.9684
vn 0.4817 -0.0789 0.8728
vn 0.5447 -0.3151 0.7772
vn 0.5160 -0.5160 0.6837
vn 0.3151 -0.5447 0.7772
vn 0.0789 -0.4817 0.8728
vn -0.1047 -0.2262 0.9684
vn -0.0926 -0.1196 0.9885
vn -0.0646 -0.0297 0.9975
vn -0.0774 -0.2726 0.9590
vn -0.3191 -0.3191 0.8924
vn -0.0672 -0.0672 0.9955
vn -0.2726 -0.0774 0.9590
vn 0.1047 -0.2262 0.9684
vn -0.0789 -0.4817 0.8728
vn -0.3151 -0.5447 0.7772
vn -0.5160 -0.5160 0.6837
vn -0.5447 -0.3151 0.7772
vn -0.4817 -0.0789 0.8728
vn -0.2262 0.1047 0.9684
vn -0.1196 0.0926 0.9885
vn -0.0297 0.0646 0.9975
vn 0.0240 0.0240 0.9994
vn 0.0646 -0.0297 0.9975
vn 0.0926 -0.1196 0.9885
vn -0.3191 0.3191 0.8924
vn -0.0774 0.2726 0.9590
vn -0.2726 0.0774 0.9590
vn -0.0672 0.0672 0.9955
vn -0.5160 0.5160 0.6837
vn -0.3151 0.5447 0.7772
vn -0.0789 0.4817 0.8728
vn 0.1047 0.2262 0.9684
vn 0.0926 0.1196 0.9885
vn 0.0646 0.0297 0.9975
vn 0.0240 -0.0240 0.9994
vn -0.0297 -0.0646 0.9975
vn -0.1196 -0.0926 0.9885
vn -0.2262 -0.1047 0.9684
vn -0.4817 0.0789 0.8728
vn -0.5447 0.3151 0.7772
vn 0.2726 0.0774 0.9590
vn 0.0672 0.0672 0.9955
vn 0.3191 0.3191 0.8924
vn 0.0774 0.2726 0.9590
vn 0.2262 -0.1047 0.9684
vn 0.1196 -0.0926 0.9885
vn 0.0297 -0.0646 0.9975
vn -0.0240 -0.0240 0.9994
vn -0.0646 0.0297 0.9975
vn -0.0926 0.1196 0.9885
vn -0.1047 0.2262 0.9684
vn 0.0789 0.4817 0.8728
vn 0.3151 0.5447 0.7772
vn 0.5160 0.5160 0.6837
vn 0.5447 0.3151 0.7772
vn 0.4817 0.0789 0.8728
vt 0.625000 0.625000
vt 0.750000 0.625000
vt 0.750000 0.750000
vt 0.625000 0.750000
vt 0.875000 0.625000
vt 0.875000 0.750000
vt 0.750000 0.875000
vt 0.625000 0.875000
vt 0.875000 0.875000
vt 0.500000 0.500000
vt 0.625000 0.500000
vt 0.500000 0.625000
vt 0.750000 0.500000
vt 0.875000 0.500000
vt 1.000000 0.500000
vt 1.000000 0.625000
vt 1.000000 0.750000
vt 1.000000 0.875000
vt 1.000000 1.000000
vt 0.875000 1.000000
vt 0.750000 1.000000
vt 0.625000 1.000000
vt 0.500000 0.875000
vt 0.500000 1.000000
vt 0.500000 0.750000
vt 0.625000 0.125000
vt 0.750000 0.125000
vt 0.750000 0.250000
vt 0.625000 0.250000
vt 0.875000 0.125000
vt 0.875000 0.250000
vt 0.750000 0.375000
vt 0.625000 0.375000
vt 0.875000 0.375000
vt 0.500000 0.000000
vt 0.625000 0.000000
vt 0.500000 0.125000
vt 0.750000 0.000000
vt 0.875000 0.000000
vt 1.000000 0.000000
vt 1.000000 0.125000
vt 1.000000 0.250000
vt 1.000000 0.375000
vt 0.500000 0.375000
vt 0.500000 0.250000
vt 0.125000 0.125000
vt 0.250000 0.125000
vt 0.250000 0.250000
vt 0.125000 0.250000
vt 0.375000 0.125000
vt 0.375000 0.250000
vt 0.250000 0.375000
vt 0.125000 0.375000
vt 0.375000 0.375000
vt 0.000000 0.000000
vt 0.125000 0.000000
vt 0.000000 0.125000
vt 0.250000 0.000000
vt 0.375000 0.000000
vt 0.375000 0.500000
vt 0.250000 0.500000
vt 0.125000 0.500000
vt 0.000000 0.375000
vt 0.000000 0.500000
vt 0.000000 0.250000
vt 0.125000 0.625000
vt 0.250000 0.625000
vt 0.250000 0.750000
vt 0.125000 0.750000
vt 0.375000 0.625000
vt 0.375000 0.750000
vt 0.250000 0.875000
vt 0.125000 0.875000
vt 0.375000 0.875000
vt 0.000000 0.625000
vt 0.375000 1.000000
vt 0.250000 1.000000
vt 0.125000 1.000000
vt 0.000000 0.875000
vt 0.000000 1.000000
vt 0.000000 0.750000
s 0
usemtl Material.002
f 141/26/33 142/27/33 145/28/33 144/29/33
f 142/27/34 143/30/34 146/31/34 145/28/34
f 144/29/35 145/28/35 148/32/35 147/33/35
f 145/28/36 146/31/36 149/34/36 148/32/36
f 59/35/37 98/36/37 141/26/37 102/37/37
f 98/36/38 97/38/38 142/27/38 141/26/38
f 97/38/39 96/39/39 143/30/39 142/27/39
f 96/39/40 56/40/40 75/41/40 143/30/40
f 143/30/41 75/41/41 76/42/41 146/31/41
f 146/31/42 76/42/42 77/43/42 149/34/42
f 149/34/43 77/43/43 54/44/43 93/45/43
f 148/32/44 149/34/44 93/45/44 94/46/44
f 147/33/45 148/32/45 94/46/45 95/47/45
f 104/48/46 147/33/46 95/47/46 58/49/46
f 103/50/47 144/29/47 147/33/47 104/48/47
f 102/37/48 141/26/48 144/29/48 103/50/48
f 150/51/49 151/52/49 154/53/49 153/54/49
f 151/52/50 152/55/50 155/56/50 154/53/50
f 153/54/51 154/53/51 157/57/51 156/58/51
f 154/53/52 155/56/52 158/59/52 157/57/52
f 57/60/53 72/61/53 150/51/53 99/62/53
f 72/61/54 73/63/54 151/52/54 150/51/54
f 73/63/55 74/64/55 152/55/55 151/52/55
f 74/64/56 52/65/56 84/66/56 152/55/56
f 152/55/57 84/66/57 85/67/57 155/56/57
f 155/56/58 85/67/58 86/68/58 158/59/58
f 158/59/59 86/68/59 56/40/59 96/39/59
f 157/57/60 158/59/60 96/39/60 97/38/60
f 156/58/61 157/57/61 97/38/61 98/36/61
f 101/69/62 156/58/62 98/36/62 59/35/62
f 100/70/63 153/54/63 156/58/63 101/69/63
f 99/62/64 150/51/64 153/54/64 100/70/64
f 159/71/65 160/72/65 163/73/65 162/74/65
f 160/72/66 161/75/66 164/76/66 163/73/66
f 162/74/67 163/73/67 166/77/67 165/78/67
f 163/73/68 164/76/68 167/79/68 166/77/68
f 51/80/69 90/81/69 159/71/69 71/82/69
f 90/81/70 91/83/70 160/72/70 159/71/70
f 91/83/71 92/84/71 161/75/71 160/72/71
f 92/84/72 57/60/72 99/62/72 161/75/72
f 161/75/73 99/62/73 100/70/73 164/76/73
f 164/76/74 100/70/74 101/69/74 167/79/74
f 167/79/75 101/69/75 59/35/75 87/85/75
f 166/77/76 167/79/76 87/85/76 88/86/76
f 165/78/77 166/77/77 88/86/77 89/87/77
f 69/88/78 165/78/78 89/87/78 55/89/78
f 70/90/79 162/74/79 165/78/79 69/88/79
f 71/82/80 159/71/80 162/74/80 70/90/80
f 168/91/81 169/92/81 172/93/81 171/94/81
f 169/92/82 170/95/82 173/96/82 172/93/82
f 171/94/83 172/93/83 175/97/83 174/98/83
f 172/93/84 173/96/84 176/99/84 175/97/84
f 55/89/85 89/87/85 168/91/85 83/100/85
f 89/87/86 88/86/86 169/92/86 168/91/86
f 88/86/87 87/85/87 170/95/87 169/92/87
f 87/85/88 59/35/88 102/37/88 170/95/88
f 170/95/89 102/37/89 103/50/89 173/96/89
f 173/96/90 103/50/90 104/48/90 176/99/90
f 176/99/91 104/48/91 58/49/91 78/101/91
f 175/97/92 176/99/92 78/101/92 79/102/92
f 174/98/93 175/97/93 79/102/93 80/103/93
f 81/104/94 174/98/94 80/103/94 53/105/94
f 82/106/95 171/94/95 174/98/95 81/104/95
f 83/100/96 168/91/96 171/94/96 82/106/96
f 177/26/97 178/27/97 181/28/97 180/29/97
f 178/27/98 179/30/98 182/31/98 181/28/98
f 180/29/99 181/28/99 184/32/99 183/33/99
f 181/28/100 182/31/100 185/34/100 184/32/100
f 68/35/101 134/36/101 177/26/101 138/37/101
f 134/36/102 133/38/102 178/27/102 177/26/102
f 133/38/103 132/39/103 179/30/103 178/27/103
f 132/39/104 65/40/104 113/41/104 179/30/104
f 179/30/105 113/41/105 112/42/105 182/31/105
f 182/31/106 112/42/106 111/43/106 185/34/106
f 185/34/107 111/43/107 63/44/107 131/45/107
f 184/32/108 185/34/108 131/45/108 130/46/108
f 183/33/109 184/32/109 130/46/109 129/47/109
f 140/48/110 183/33/110 129/47/110 67/49/110
f 139/50/111 180/29/111 183/33/111 140/48/111
f 138/37/112 177/26/112 180/29/112 139/50/112
f 186/51/113 187/52/113 190/53/113 189/54/113
f 187/52/114 188/55/114 191/56/114 190/53/114
f 189/54/115 190/53/115 193/57/115 192/58/115
f 190/53/116 191/56/116 194/59/116 193/57/116
f 66/60/117 110/61/117 186/51/117 135/62/117
f 110/61/118 109/63/118 187/52/118 186/51/118
f 109/63/119 108/64/119 188/55/119 187/52/119
f 108/64/120 61/65/120 122/66/120 188/55/120
f 188/55/121 122/66/121 121/67/121 191/56/121
f 191/56/122 121/67/122 120/68/122 194/59/122
f 194/59/123 120/68/123 65/40/123 132/39/123
f 193/57/124 194/59/124 132/39/124 133/38/124
f 192/58/125 193/57/125 133/38/125 134/36/125
f 137/69/126 192/58/126 134/36/126 68/35/126
f 136/70/127 189/54/127 192/58/127 137/69/127
f 135/62/128 186/51/128 189/54/128 136/70/128
f 195/71/129 196/72/129 199/73/129 198/74/129
f 196/72/130 197/75/130 200/76/130 199/73/130
f 198/74/131 199/73/131 202/77/131 201/78/131
f 199/73/132 200/76/132 203/79/132 202/77/132
f 60/80/133 128/81/133 195/71/133 105/82/133
f 128/81/134 127/83/134 196/72/134 195/71/134
f 127/83/135 126/84/135 197/75/135 196/72/135
f 126/84/136 66/60/136 135/62/136 197/75/136
f 197/75/137 135/62/137 136/70/137 200/76/137
f 200/76/138 136/70/138 137/69/138 203/79/138
f 203/79/139 137/69/139 68/35/139 123/85/139
f 202/77/140 203/79/140 123/85/140 124/86/140
f 201/78/141 202/77/141 124/86/141 125/87/141
f 107/88/142 201/78/142 125/87/142 64/89/142
f 106/90/143 198/74/143 201/78/143 107/88/143
f 105/82/144 195/71/144 198/74/144 106/90/144
f 204/91/145 205/92/145 208/93/145 207/94/145
f 205/92/146 206/95/146 209/96/146 208/93/146
f 207/94/147 208/93/147 211/97/147 210/98/147
f 208/93/148 209/96/148 212/99/148 211/97/148
f 64/89/149 125/87/149 204/91/149 117/100/149
f 125/87/150 124/86/150 205/92/150 204/91/150
f 124/86/151 123/85/151 206/95/151 205/92/151
f 123/85/152 68/35/152 138/37/152 206/95/152
f 206/95/153 138/37/153 139/50/153 209/96/153
f 209/96/154 139/50/154 140/48/154 212/99/154
f 212/99/155 140/48/155 67/49/155 116/101/155
f 211/97/156 212/99/156 116/101/156 115/102/156
f 210/98/157 211/97/157 115/102/157 114/103/157
f 119/104/158 210/98/158 114/103/158 62/105/158
f 118/106/159 207/94/159 210/98/159 119/104/159
f 117/100/160 204/91/160 207/94/160 118/106/160
o 
v 0.000000 0.000000 0.000000
v 0.000000 0.000000 0.000000
o Cube
v -1.000000 1.000000 -1.000000
v -1.000000 1.000000 1.000000
v 1.000000 1.000000 -1.000000
v 1.000000 1.000000 1.000000
v -1.000000 -1.000000 -1.000000
v -1.000000 -1.000000 1.000000
v 1.000000 -1.000000 -1.000000
v 1.000000 -1.000000 1.000000
vn -0.0000 1.0000 -0.0000
vn 1.0000 -0.0000 -0.0000
vn -0.0000 -1.0000 -0.0000
vn -1.0000 -0.0000 -0.0000
vn -0.0000 -0.0000 -1.0000
vn -0.0000 -0.0000 1.0000
vt 0.375000 0.000000
vt 0.625000 0.000000
vt 0.625000 0.250000
vt 0.375000 0.250000
vt 0.625000 0.500000
vt 0.375000 0.500000
vt 0.625000 0.750000
vt 0.375000 0.750000
vt 0.625000 1.000000
vt 0.375000 1.000000
vt 0.125000 0.500000
vt 0.125000 0.750000
vt 0.875000 0.500000
vt 0.875000 0.750000
s 0
usemtl Material.004
f 215/107/161 216/108/161 218/109/161 217/110/161
f 217/110/162 218/109/162 222/111/162 221/112/162
f 221/112/163 222/111/163 220/113/163 219/114/163
f 219/114/164 220/113/164 216/115/164 215/116/164
f 217/117/165 221/112/165 219/114/165 215/118/165
f 222/111/166 218/119/166 216/120/166 220/113/166
